<svg xmlns="http://www.w3.org/2000/svg" width="128" height="128" fill="none" viewBox="0 0 128 128" id="php">
  <path fill="url(#paint0_linear_546_17698)" fill-rule="evenodd" d="M44 23.5C37.6487 23.5 32.5 28.6487 32.5 35V54.5C32.5 55.8807 33.6193 57 35 57C36.3807 57 37.5 55.8807 37.5 54.5V35C37.5 31.4101 40.4101 28.5 44 28.5H73.5V41C73.5 44.0376 75.9624 46.5 79 46.5H90.5V93C90.5 96.5899 87.5899 99.5 84 99.5H44C40.4101 99.5 37.5 96.5899 37.5 93V90C37.5 88.6193 36.3807 87.5 35 87.5C33.6193 87.5 32.5 88.6193 32.5 90V93C32.5 99.3513 37.6487 104.5 44 104.5H84C90.3513 104.5 95.5 99.3513 95.5 93V44.9654C95.5 42.5639 94.5905 40.2516 92.9546 38.4936L89.881 35.1908L89.8419 35.1488L89.8009 35.1086L80.7286 26.2157C78.9528 24.475 76.5652 23.5 74.0785 23.5H44ZM88.9222 41.5L86.2599 38.6391L78.5 31.0327V41C78.5 41.2761 78.7239 41.5 79 41.5H88.9222ZM34.0401 64.9102C33.8619 64.9102 33.6998 64.971 33.5711 65.0957C33.4206 65.2267 33.3701 65.4145 33.3701 65.6002V79.5602C33.3701 79.7425 33.4134 79.9257 33.5443 80.0628C33.6772 80.202 33.8585 80.2502 34.0401 80.2502H37.0001C37.1893 80.2502 37.3775 80.2051 37.5179 80.0708C37.6604 79.9346 37.7101 79.7483 37.7101 79.5602V75.0702H40.5201C41.2337 75.0702 41.8909 74.9301 42.4876 74.6459L42.4919 74.6438C43.0796 74.3499 43.5856 73.9638 44.0076 73.4856C44.4275 73.0096 44.7497 72.4705 44.9735 71.8697C45.2108 71.2687 45.3301 70.6517 45.3301 70.0202C45.3301 69.3755 45.2109 68.7513 44.973 68.1492C44.7357 67.5354 44.4001 66.9894 43.9662 66.5132C43.5438 66.0349 43.031 65.6493 42.4308 65.356C41.8335 65.0576 41.1751 64.9102 40.4601 64.9102H34.0401ZM47.6539 64.9102C47.4544 64.9102 47.2626 64.9759 47.136 65.1471C47.0304 65.2774 46.9839 65.4341 46.9839 65.6002V79.5602C46.9839 79.7425 47.0272 79.9257 47.158 80.0628C47.2909 80.202 47.4723 80.2502 47.6539 80.2502H50.5939C50.7873 80.2502 50.979 80.2063 51.1228 80.0744C51.2708 79.9388 51.3239 79.7512 51.3239 79.5602V74.1302H55.8439V79.5602C55.8439 79.7454 55.8903 79.9302 56.0271 80.0669C56.1638 80.2037 56.3487 80.2502 56.5339 80.2502H59.4739C59.6673 80.2502 59.859 80.2063 60.0028 80.0744C60.1508 79.9388 60.2039 79.7512 60.2039 79.5602V65.5802C60.2039 65.3702 60.1445 65.1174 59.9022 65.0143C59.7879 64.9514 59.6638 64.9102 59.5339 64.9102H56.5339C56.3297 64.9102 56.1408 64.9779 56.0041 65.1375L56.0018 65.1401C55.8921 65.2718 55.8439 65.4311 55.8439 65.6002V70.0902H51.3239V65.5802C51.3239 65.385 51.2793 65.1261 51.0469 65.0169C50.9247 64.9491 50.7928 64.9102 50.6539 64.9102H47.6539ZM63.6886 64.9102C63.5103 64.9102 63.3483 64.971 63.2195 65.0957C63.069 65.2267 63.0186 65.4145 63.0186 65.6002V79.5602C63.0186 79.7425 63.0619 79.9257 63.1927 80.0628C63.3256 80.202 63.507 80.2502 63.6886 80.2502H66.6486C66.8377 80.2502 67.026 80.2051 67.1664 80.0708C67.3088 79.9346 67.3586 79.7483 67.3586 79.5602V75.0702H70.1686C70.8821 75.0702 71.5394 74.9301 72.1361 74.6459L72.1404 74.6438C72.728 74.3499 73.234 73.9638 73.656 73.4856C74.0759 73.0096 74.3981 72.4706 74.6219 71.8699C74.8592 71.2688 74.9786 70.6517 74.9786 70.0202C74.9786 69.3755 74.8593 68.7513 74.6214 68.1492C74.3841 67.5353 74.0485 66.9894 73.6146 66.5132C73.1922 66.0348 72.6794 65.6493 72.0793 65.356C71.4819 65.0576 70.8235 64.9102 70.1086 64.9102H63.6886ZM37.7101 71.4102V68.5702H39.6201C39.8218 68.5702 39.9914 68.6146 40.1361 68.6972L40.145 68.7023L40.1544 68.7067C40.3211 68.7845 40.447 68.8865 40.5399 69.0104L40.5481 69.0202C40.6612 69.156 40.746 69.3084 40.8029 69.4792L40.8053 69.4862L40.808 69.493C40.8771 69.6658 40.9101 69.8343 40.9101 70.0002C40.9101 70.3694 40.7964 70.7022 40.5634 71.0058C40.352 71.269 40.0498 71.4102 39.6201 71.4102H37.7101ZM67.3586 71.4102V68.5702H69.2686C69.4702 68.5702 69.6399 68.6146 69.7845 68.6972L69.7935 68.7023L69.8028 68.7067C69.9695 68.7845 70.0954 68.8865 70.1883 69.0104L70.1965 69.0202C70.3096 69.156 70.3945 69.3084 70.4514 69.4792L70.4537 69.4862L70.4564 69.493C70.5255 69.6658 70.5586 69.8343 70.5586 70.0002C70.5586 70.3695 70.4448 70.7022 70.2118 71.0059C70.0004 71.269 69.6982 71.4102 69.2686 71.4102H67.3586Z" clip-rule="evenodd"></path>
  <defs>
    <linearGradient id="paint0_linear_546_17698" x1="64" x2="64" y1="23.5" y2="104.5" gradientUnits="userSpaceOnUse">
      <stop stop-color="#C1E000"></stop>
      <stop offset="1" stop-color="#8CAF00"></stop>
    </linearGradient>
  </defs>
</svg>
